<?xml version="1.0" encoding="UTF-8"?>
<svg id="Capa_1" xmlns="http://www.w3.org/2000/svg" version="1.1" xmlns:xlink="http://www.w3.org/1999/xlink" viewBox="0 0 810 810">
  <!-- Generator: Adobe Illustrator 29.0.0, SVG Export Plug-In . SVG Version: 2.1.0 Build 186)  -->
  <defs>
    <style>
      .st0 {
        fill: #0072e9;
      }

      .st1 {
        fill: #0099fe;
      }

      .st2 {
        fill: #0077fe;
      }

      .st3 {
        fill: #0058dc;
      }

      .st4 {
        fill: url(#Degradado_sin_nombre_21);
      }

      .st5 {
        fill: #0090f3;
      }

      .st6 {
        fill: #863f9b;
      }

      .st7 {
        fill: #008df2;
      }
    </style>
    <linearGradient id="Degradado_sin_nombre_21" data-name="Degradado sin nombre 21" x1="187.9" y1="285.8" x2="622.1" y2="285.8" gradientUnits="userSpaceOnUse">
      <stop offset="0" stop-color="#000"/>
      <stop offset="1" stop-color="#fb57ff"/>
    </linearGradient>
  </defs>
  <g>
    <path class="st6" d="M97.9,687.8c-8.4,0-15-1.8-19.6-5.5-4.6-3.7-6.9-8.7-6.9-15.2s.8-6.8,2.5-9.6c1.7-2.8,4.3-5.1,7.9-6.8,3.6-1.7,8.2-2.9,13.8-3.5l32-3.1v15.6l-24.6,2.9c-1.3.1-2.2.4-2.8.9-.5.5-.8,1.2-.8,2,0,1.2.6,2,1.7,2.3,1.1.4,2.8.5,5,.5,5,0,8.9-.3,11.8-.8,2.9-.5,5-1.6,6.3-3.1,1.3-1.5,1.9-3.6,1.9-6.5l2.1-.6v13.2h-2.1c-1.4,5.3-4.4,9.5-9.1,12.7-4.7,3.1-11.1,4.7-19.2,4.7ZM153.9,686.3h-26.2v-16.8h-1.5v-26.9c0-3.8-1-6.2-2.9-7.3s-5.4-1.6-10.3-1.6-7.7.6-9.5,1.7c-1.7,1.1-2.6,3.2-2.6,6.4v.6h-28v-.3c0-6.7,1.7-12.5,5.2-17.5,3.5-5,8.4-8.8,14.7-11.5,6.3-2.7,13.7-4,22.2-4s16,1.4,21.7,4.1c5.8,2.8,10,6.7,12.9,11.7,2.8,5.1,4.2,11.1,4.2,18.2v43Z"/>
    <path class="st6" d="M202.6,687.8c-13.2,0-23.3-2.4-30.2-7.3-6.9-4.9-10.4-11.7-10.4-20.4v-.6h28v1.5c0,2.1.9,3.4,2.6,3.9,1.7.5,5.1.8,10.2.8s7.9-.3,9.2-.8c1.3-.5,1.9-1.5,1.9-2.8s-.5-2-1.5-2.5c-1-.4-3.2-.9-6.7-1.3l-21.7-2.4c-7.7-.8-13.6-3-17.7-6.7-4.1-3.6-6.1-8.7-6.1-15.1s1.3-8.6,3.8-12.4c2.5-3.8,6.6-6.8,12.4-9.1,5.7-2.3,13.2-3.4,22.6-3.4s16.1,1,22,3.1c5.9,2.1,10.4,5.2,13.4,9.4,3,4.2,4.5,9.3,4.5,15.5v.6h-28v-.9c0-1.3-.3-2.4-.8-3.2-.5-.8-1.7-1.5-3.6-1.9-1.8-.4-4.6-.6-8.4-.6s-7.4.3-8.6,1c-1.1.7-1.7,1.7-1.7,3.1s.6,1.8,1.7,2.4c1.1.6,3.9,1.2,8.3,1.6l14.9,1.7c10.9,1.2,18.5,3.7,22.6,7.3,4.2,3.7,6.3,8.8,6.3,15.2s-1.5,8.9-4.5,12.5c-3,3.7-7.4,6.5-13.2,8.6-5.8,2.1-12.8,3.2-21.1,3.2Z"/>
    <path class="st6" d="M304.2,633.8h-60.6v-23.1h60.6v23.1ZM304.2,686.3h-19.6c-9.3,0-16.6-2.3-22-7-5.3-4.7-8-11.9-8-21.8v-59.9h28v55.8c0,3,.6,5,1.7,6,1.1,1,3.3,1.5,6.5,1.5h13.4v25.3Z"/>
    <path class="st6" d="M338.9,686.3h-28v-75.6h26.2v21.6l1.8.8v53.2ZM338.9,641.1h-5.2v-10.6h4.9c.7-4.2,2-7.9,4-11.1,2-3.2,4.7-5.7,8.1-7.5,3.4-1.8,7.6-2.7,12.6-2.7s10,1.1,13.4,3.4c3.4,2.2,5.8,5.3,7.4,9.2,1.5,3.9,2.3,8.4,2.3,13.5v15h-28v-8.8c0-3.2-.7-5.4-2.1-6.7-1.4-1.2-3.9-1.9-7.6-1.9s-6.4.6-7.7,1.9c-1.4,1.3-2.1,3.4-2.1,6.4Z"/>
    <path class="st6" d="M434.2,687.8c-8.4,0-15.9-1.3-22.5-3.9-6.5-2.6-11.7-6.8-15.3-12.6-3.7-5.8-5.5-13.4-5.5-22.8s1.8-15.2,5.5-21.1c3.7-5.8,8.7-10.3,15.1-13.5s13.8-4.7,22.1-4.7,16.1,1.4,22.5,4.3c6.3,2.9,11.3,7,14.7,12.6,3.5,5.5,5.2,12.4,5.2,20.5s0,2.5,0,3.5c0,1-.2,2.3-.4,3.7h-66.4v-14.2h46.1l-6.1,8.8v-5.2c0-4.6-1.2-7.8-3.5-9.6s-6.6-2.7-12.7-2.7-10.6,1-12.9,3c-2.2,2-3.3,5.6-3.3,10.8v7.2c0,5.3,1.1,8.9,3.4,10.8,2.3,1.9,6.6,2.9,13,2.9s9.5-.5,11.4-1.6,2.9-2.7,2.9-4.9v-1.7h28v1.8c0,5.6-1.7,10.6-5.1,14.9-3.4,4.3-8.1,7.7-14.3,10.1-6.2,2.4-13.4,3.7-21.9,3.7Z"/>
    <path class="st6" d="M511.4,686.3h-28v-75.6h26.2v23.2l1.8.8v51.6ZM570.8,686.3h-28v-38.1c0-5.3-1.1-8.9-3.4-10.9-2.3-2-6.5-2.9-12.7-2.9s-10.2.9-12.3,2.8c-2,1.9-3.1,5.2-3.1,10.1h-2.8l-2.4-13.7h4.9c.6-4.2,2-8.1,4.1-11.8,2.1-3.7,5.3-6.7,9.5-9.1,4.2-2.3,9.7-3.5,16.3-3.5s12.3,1.3,16.7,3.8c4.4,2.5,7.7,5.9,9.8,10.2,2.1,4.3,3.2,9.2,3.2,14.7v48.5Z"/>
    <path class="st6" d="M604.6,686.3h-31.4l43-100.5h40l43.2,100.5h-32.2l-23.7-58-6.5-17h-1.9l-6.4,17-24.1,58ZM672.2,667.7h-73.5v-25.4h73.5v25.4Z"/>
    <path class="st6" d="M730.4,686.3h-28v-100.5h28v100.5Z"/>
  </g>
  <text/>
  <path class="st2" d="M526.9,485.4l2.2-2.2c-.7.4-1.4,1.8-2.2,2.2Z"/>
  <path class="st1" d="M495.8,347.2h-2.2c.5-1.5.4-3.3,2.2-4.3.3,1.3-.2,3,0,4.3Z"/>
  <path class="st0" d="M498,349.4c-1-.3-2-1.2-2.2-2.2,2.1-.2,1.8.8,2.2,2.2Z"/>
  <path class="st3" d="M262.2,427.9v-.7c0,.2,0,.4,0,.7Z"/>
  <path class="st5" d="M205.8,196l-.7,1c.2-.3.4-.7.7-1Z"/>
  <path class="st4" d="M611.7,214.8c-13.9-10-32.2-10.9-48.7-12.5-23-2.2-43.8-1.4-64.3-8-31.3-10.6-42.4-47-54.4-74.8-6.6-15.3-15.4-33.6-31.9-38.2-11.9-3.1-22.9,3.2-30.5,13-12.9,17.3-19.7,38.4-28.8,57.8-6.8,15.2-15,31-30.2,39-9.8,5.4-21.1,7.4-32.2,8.6-20.8,2.1-41.8,1.9-62.6,4.5-42.8,4.9-54,32.6-21.1,62.9,12.3,11.6,25.4,22,38.2,33,25,21.6,44.3,27.3,64.8-2.4,19.7-29.9,44.6-56.7,76.2-74.2,13.4-7.5,28.6-14.1,44.3-13.4,26.5,1,36.4,22.7,33.8,46.9-2.1,20.8-11.6,40.1-22.2,57.9-18.7,31-42.5,59.6-72.4,80.5-4.9,3.4-24.9,16.7-24.9,5.3,1.3-9.8,12.6-22.9,19-32.9,9.1-13.7,17.7-28,22.4-44,5.5-19.9-1.3-30.9-20-19.3-10.3,6.3-20.7,15.3-29.8,23.7-15.4,14.3-27.3,26.3-40.1,40.9-8.7,10-16.4,20.9-21.6,33.1-7,16.7-12.8,39.1-12.6,58.4,0,16.4,8.9,31.2,26.5,30.9,16.2-.5,29.9-10.3,43.6-18.1,71.1-43.6,77.8-53.5,150-3,10.5,6.9,21.5,14.1,34,16.5,23.5,4.3,34.1-12.4,32.8-34.1-1.2-22.2-7.1-43.7-12.1-65.2-4.5-17.9-9.2-38.2.9-55.1,5.1-8.9,12.7-16.3,20.2-23.2,15.9-14.6,33-27.5,48-42.8,14.1-14.1,25.1-36.1,5.9-51.2h-.1ZM237.1,225.2c.1-.2.8-1.2.7-1-.1.2-.7,1-.7,1h0ZM294.2,456c0-.2-.1-.9,0-.6,0,.2.1.7,0,.7h0Z"/>
  <path class="st7" d="M205.8,196l-.7,1c.2-.3.4-.7.7-1Z"/>
</svg>