<?xml version="1.0" encoding="UTF-8"?>
<svg id="Capa_1" xmlns="http://www.w3.org/2000/svg" version="1.1" xmlns:xlink="http://www.w3.org/1999/xlink" viewBox="0 0 810 810">
  <!-- Generator: Adobe Illustrator 29.0.0, SVG Export Plug-In . SVG Version: 2.1.0 Build 186)  -->
  <defs>
    <style>
      .st0 {
        fill: url(#Degradado_sin_nombre_182);
      }

      .st1 {
        fill: #0072e9;
      }

      .st2 {
        fill: #0099fe;
      }

      .st3 {
        fill: none;
      }

      .st4 {
        fill: #0077fe;
      }

      .st5 {
        fill: #0058dc;
      }

      .st6 {
        fill: #0090f3;
      }

      .st7 {
        fill: #d1124e;
      }

      .st8 {
        fill: #008df2;
      }
    </style>
    <linearGradient id="Degradado_sin_nombre_182" data-name="Degradado sin nombre 182" x1="187.9" y1="277.5" x2="622.1" y2="277.5" gradientUnits="userSpaceOnUse">
      <stop offset=".4" stop-color="#b7000a"/>
      <stop offset=".4" stop-color="#c3000c"/>
      <stop offset=".4" stop-color="#d90010"/>
      <stop offset=".5" stop-color="#ea0013"/>
      <stop offset=".5" stop-color="#f60015"/>
      <stop offset=".6" stop-color="#fd0016"/>
      <stop offset=".9" stop-color="#ff0017"/>
    </linearGradient>
  </defs>
  <g>
    <path class="st7" d="M80.3,622.8c-5.6,0-10-1.2-13-3.7-3.1-2.5-4.6-5.8-4.6-10.1s.6-4.5,1.7-6.4c1.1-1.9,2.9-3.4,5.3-4.5,2.4-1.2,5.5-2,9.2-2.3l21.3-2.1v10.4l-16.4,1.9c-.9,0-1.5.3-1.8.6-.4.3-.5.8-.5,1.3,0,.8.4,1.3,1.1,1.5.8.2,1.9.4,3.3.4,3.3,0,5.9-.2,7.8-.6,1.9-.4,3.3-1,4.2-2,.9-1,1.3-2.4,1.3-4.3l1.4-.4v8.8h-1.4c-.9,3.5-2.9,6.3-6.1,8.4-3.1,2.1-7.4,3.2-12.8,3.2ZM117.6,621.8h-17.5v-11.2h-1v-17.9c0-2.5-.6-4.2-1.9-4.9s-3.6-1-6.9-1-5.1.4-6.3,1.1c-1.2.7-1.7,2.2-1.7,4.3v.4h-18.7v-.2c0-4.5,1.2-8.3,3.5-11.6,2.3-3.3,5.6-5.9,9.8-7.7,4.2-1.8,9.2-2.7,14.8-2.7s10.7.9,14.5,2.8c3.8,1.8,6.7,4.4,8.6,7.8,1.9,3.4,2.8,7.4,2.8,12.1v28.7Z"/>
    <path class="st7" d="M150.1,622.8c-8.8,0-15.5-1.6-20.1-4.9-4.6-3.3-6.9-7.8-6.9-13.6v-.4h18.7v1c0,1.4.6,2.3,1.7,2.6,1.2.3,3.4.5,6.8.5s5.3-.2,6.2-.5c.9-.4,1.3-1,1.3-1.9s-.3-1.3-1-1.6c-.7-.3-2.2-.6-4.5-.9l-14.5-1.6c-5.2-.5-9.1-2-11.8-4.5-2.7-2.4-4.1-5.8-4.1-10s.8-5.8,2.5-8.2,4.4-4.5,8.2-6c3.8-1.5,8.8-2.3,15-2.3s10.7.7,14.6,2.1c3.9,1.4,6.9,3.5,8.9,6.2,2,2.8,3,6.2,3,10.3v.4h-18.7v-.6c0-.9-.2-1.6-.5-2.1-.4-.6-1.2-1-2.4-1.2-1.2-.3-3.1-.4-5.6-.4s-4.9.2-5.7.7c-.8.4-1.1,1.1-1.1,2s.4,1.2,1.1,1.6c.8.4,2.6.8,5.5,1.1l9.9,1.1c7.3.8,12.3,2.4,15.1,4.9,2.8,2.5,4.2,5.8,4.2,10.1s-1,5.9-3,8.4c-2,2.4-4.9,4.3-8.8,5.8-3.8,1.4-8.5,2.1-14.1,2.1Z"/>
    <path class="st7" d="M217.9,586.8h-40.4v-15.4h40.4v15.4ZM217.9,621.8h-13.1c-6.2,0-11.1-1.6-14.6-4.7-3.5-3.1-5.3-8-5.3-14.5v-39.9h18.7v37.2c0,2,.4,3.3,1.1,4,.8.7,2.2,1,4.3,1h8.9v16.9Z"/>
    <path class="st7" d="M241,621.8h-18.7v-50.4h17.5v14.4l1.2.5v35.5ZM241,591.7h-3.5v-7.1h3.3c.5-2.8,1.4-5.3,2.7-7.4,1.3-2.1,3.1-3.8,5.4-5,2.3-1.2,5.1-1.8,8.4-1.8s6.7.8,8.9,2.2c2.2,1.5,3.9,3.6,4.9,6.2,1,2.6,1.5,5.6,1.5,9v10h-18.7v-5.9c0-2.1-.5-3.6-1.4-4.4-.9-.8-2.6-1.2-5.1-1.2s-4.2.4-5.2,1.2c-.9.8-1.4,2.2-1.4,4.2Z"/>
    <path class="st7" d="M304.5,622.8c-5.6,0-10.6-.9-15-2.6-4.4-1.7-7.8-4.5-10.2-8.4-2.4-3.9-3.7-8.9-3.7-15.2s1.2-10.1,3.7-14c2.4-3.9,5.8-6.9,10.1-9s9.2-3.2,14.7-3.2,10.8,1,15,2.9c4.2,1.9,7.5,4.7,9.8,8.4,2.3,3.7,3.5,8.2,3.5,13.7s0,1.7,0,2.3c0,.7-.1,1.5-.2,2.5h-44.3v-9.5h30.8l-4.1,5.9v-3.5c0-3.1-.8-5.2-2.3-6.4-1.6-1.2-4.4-1.8-8.5-1.8s-7.1.7-8.6,2c-1.5,1.3-2.2,3.7-2.2,7.2v4.8c0,3.5.8,5.9,2.3,7.2,1.5,1.3,4.4,1.9,8.6,1.9s6.3-.3,7.6-1,1.9-1.8,1.9-3.2v-1.1h18.7v1.2c0,3.7-1.1,7-3.4,9.9-2.2,2.9-5.4,5.1-9.5,6.8-4.1,1.6-9,2.5-14.6,2.5Z"/>
    <path class="st7" d="M356,621.8h-18.7v-50.4h17.5v15.5l1.2.5v34.4ZM395.6,621.8h-18.7v-25.4c0-3.5-.8-5.9-2.3-7.2-1.5-1.3-4.3-1.9-8.4-1.9s-6.8.6-8.2,1.8c-1.4,1.2-2,3.5-2,6.8h-1.9l-1.6-9.1h3.3c.4-2.8,1.3-5.4,2.7-7.9,1.4-2.5,3.5-4.5,6.4-6,2.8-1.6,6.4-2.4,10.9-2.4s8.2.8,11.2,2.5c2.9,1.7,5.1,3.9,6.5,6.8,1.4,2.9,2.1,6.1,2.1,9.8v32.3Z"/>
    <path class="st7" d="M437.3,616.2c-5,0-9.2-.9-12.6-2.8-3.4-1.8-6.1-4.5-7.9-7.9-1.8-3.4-2.7-7.5-2.7-12.3s.9-8.8,2.8-12.2c1.9-3.4,4.6-6,8.2-7.9,3.6-1.8,7.8-2.8,12.7-2.8s9.2,1.1,12.5,3.2c3.2,2.1,5.1,5.3,5.8,9.7h3.1l-1.4,9.9h-1.9c0-1.8-.4-3.2-1.2-4.1-.8-.9-2.1-1.6-3.8-1.9-1.7-.3-4-.5-6.7-.5s-5.2.2-6.8.7c-1.6.4-2.7,1.1-3.4,2-.6.9-.9,2.2-.9,3.9s.3,3,.9,4c.6,1,1.8,1.7,3.4,2.2,1.6.5,3.9.7,6.8.7,4.2,0,7.2-.4,9-1.1,1.9-.8,2.8-2.5,2.8-5.2h1.9v10.2h-2.9c-.7,3.7-2.4,6.6-5.2,8.8-2.8,2.2-6.9,3.4-12.4,3.4ZM444.6,639.8c-5.8,0-10.8-.8-14.9-2.4-4.1-1.6-7.2-3.9-9.4-7-2.2-3.1-3.3-6.8-3.3-11.2h18.7c0,1.3.2,2.4.5,3.1.4.8,1.3,1.3,2.7,1.5,1.4.3,3.8.4,7,.4s4.8-.2,6.2-.7c1.4-.4,2.4-1.3,2.9-2.8.5-1.4.8-3.5.8-6.3v-30.8h1.2v-12.4h17.5v41.9c0,6-1.2,11-3.5,14.8-2.3,3.9-5.7,6.8-10.1,8.8-4.4,1.9-9.9,2.9-16.3,2.9Z"/>
    <path class="st7" d="M496.6,622.8c-5.6,0-10-1.2-13-3.7-3.1-2.5-4.6-5.8-4.6-10.1s.6-4.5,1.7-6.4c1.1-1.9,2.9-3.4,5.3-4.5,2.4-1.2,5.5-2,9.2-2.3l21.3-2.1v10.4l-16.4,1.9c-.9,0-1.5.3-1.8.6-.4.3-.5.8-.5,1.3,0,.8.4,1.3,1.1,1.5.8.2,1.9.4,3.3.4,3.3,0,5.9-.2,7.8-.6,1.9-.4,3.3-1,4.2-2,.9-1,1.3-2.4,1.3-4.3l1.4-.4v8.8h-1.4c-.9,3.5-2.9,6.3-6.1,8.4-3.1,2.1-7.4,3.2-12.8,3.2ZM533.9,621.8h-17.5v-11.2h-1v-17.9c0-2.5-.6-4.2-1.9-4.9s-3.6-1-6.9-1-5.1.4-6.3,1.1c-1.2.7-1.7,2.2-1.7,4.3v.4h-18.7v-.2c0-4.5,1.2-8.3,3.5-11.6,2.3-3.3,5.6-5.9,9.8-7.7,4.2-1.8,9.2-2.7,14.8-2.7s10.7.9,14.5,2.8c3.8,1.8,6.7,4.4,8.6,7.8,1.9,3.4,2.8,7.4,2.8,12.1v28.7Z"/>
    <path class="st7" d="M558.1,621.8h-18.7v-50.4h17.5v15.5l1.2.5v34.4ZM595.7,621.8h-18.7v-25.4c0-3.5-.6-5.9-1.9-7.2-1.3-1.3-3.9-1.9-7.8-1.9s-6.3.6-7.5,1.8c-1.2,1.2-1.7,3.5-1.7,6.8h-1.9l-1.6-9.1h3.3c.4-2.8,1.2-5.4,2.5-7.9,1.3-2.5,3.2-4.5,5.7-6,2.5-1.6,5.9-2.4,10.1-2.4s7.9.9,10.6,2.6c2.7,1.7,4.7,4,6,7,1.3,2.9,1.9,6.1,1.9,9.5h1v32.3ZM633.4,621.8h-18.7v-25.4c0-3.5-.6-5.9-1.9-7.2-1.3-1.3-3.9-1.9-7.8-1.9s-6.3.6-7.5,1.8c-1.2,1.2-1.7,3.5-1.7,6.8h-1.9l-1.6-9.1h3.4c.4-2.8,1.2-5.4,2.5-7.9,1.3-2.5,3.3-4.5,5.9-6,2.6-1.6,6.1-2.4,10.4-2.4s7.8.8,10.6,2.5c2.8,1.7,4.8,3.9,6.2,6.8,1.4,2.9,2,6.1,2,9.8v32.3Z"/>
    <path class="st7" d="M666.8,622.8c-5.6,0-10.6-.9-15-2.6-4.4-1.7-7.8-4.5-10.2-8.4-2.4-3.9-3.7-8.9-3.7-15.2s1.2-10.1,3.7-14c2.4-3.9,5.8-6.9,10.1-9,4.3-2.1,9.2-3.2,14.7-3.2s10.8,1,15,2.9c4.2,1.9,7.5,4.7,9.8,8.4,2.3,3.7,3.5,8.2,3.5,13.7s0,1.7,0,2.3c0,.7-.1,1.5-.2,2.5h-44.3v-9.5h30.8l-4.1,5.9v-3.5c0-3.1-.8-5.2-2.3-6.4-1.6-1.2-4.4-1.8-8.5-1.8s-7.1.7-8.6,2c-1.5,1.3-2.2,3.7-2.2,7.2v4.8c0,3.5.8,5.9,2.3,7.2,1.5,1.3,4.4,1.9,8.6,1.9s6.3-.3,7.6-1,1.9-1.8,1.9-3.2v-1.1h18.7v1.2c0,3.7-1.1,7-3.4,9.9-2.2,2.9-5.4,5.1-9.5,6.8-4.1,1.6-9,2.5-14.6,2.5Z"/>
    <path class="st7" d="M726.5,622.8c-8.8,0-15.5-1.6-20.1-4.9-4.6-3.3-6.9-7.8-6.9-13.6v-.4h18.7v1c0,1.4.6,2.3,1.7,2.6,1.2.3,3.4.5,6.8.5s5.3-.2,6.2-.5c.9-.4,1.3-1,1.3-1.9s-.3-1.3-1-1.6c-.7-.3-2.2-.6-4.5-.9l-14.5-1.6c-5.2-.5-9.1-2-11.8-4.5-2.7-2.4-4.1-5.8-4.1-10s.8-5.8,2.5-8.2c1.7-2.5,4.4-4.5,8.2-6,3.8-1.5,8.8-2.3,15-2.3s10.7.7,14.6,2.1c3.9,1.4,6.9,3.5,8.9,6.2,2,2.8,3,6.2,3,10.3v.4h-18.7v-.6c0-.9-.2-1.6-.5-2.1-.4-.6-1.2-1-2.4-1.2-1.2-.3-3.1-.4-5.6-.4s-4.9.2-5.7.7c-.8.4-1.1,1.1-1.1,2s.4,1.2,1.1,1.6c.8.4,2.6.8,5.5,1.1l9.9,1.1c7.3.8,12.3,2.4,15.1,4.9,2.8,2.5,4.2,5.8,4.2,10.1s-1,5.9-3,8.4c-2,2.4-4.9,4.3-8.8,5.8-3.8,1.4-8.5,2.1-14.1,2.1Z"/>
  </g>
  <path class="st4" d="M512.9,445.1l2.2-2.2c-.7.4-1.4,1.8-2.2,2.2Z"/>
  <path class="st2" d="M481.8,306.9h-2.2c.5-1.5.4-3.3,2.2-4.3.3,1.3-.2,3,0,4.3Z"/>
  <path class="st1" d="M484,309c-1-.3-2-1.2-2.2-2.2,2.1-.2,1.8.8,2.2,2.2Z"/>
  <path class="st5" d="M248.2,387.6v-.7c0,.2,0,.4,0,.7Z"/>
  <path class="st6" d="M191.8,155.6l-.7,1c.2-.3.4-.7.7-1Z"/>
  <path class="st0" d="M611.7,206.5c-13.9-10-32.2-10.9-48.7-12.5-23-2.2-43.8-1.4-64.3-8-31.3-10.6-42.4-47-54.4-74.8-6.6-15.3-15.4-33.6-31.9-38.2-11.9-3.1-22.9,3.2-30.5,13-12.9,17.3-19.7,38.4-28.8,57.8-6.8,15.2-15,31-30.2,39-9.8,5.4-21.1,7.4-32.2,8.6-20.8,2.1-41.8,1.9-62.6,4.5-42.8,4.9-54,32.6-21.1,62.9,12.3,11.6,25.4,22,38.2,33,25,21.6,44.3,27.3,64.8-2.4,19.7-29.9,44.6-56.7,76.2-74.2,13.4-7.5,28.6-14.1,44.3-13.4,26.5,1,36.4,22.7,33.8,46.9-2.1,20.8-11.6,40.1-22.2,57.9-18.7,31-42.5,59.6-72.4,80.5-4.9,3.4-24.9,16.7-24.9,5.3,1.3-9.8,12.6-22.9,19-32.9,9.1-13.7,17.7-28,22.4-44,5.5-19.9-1.3-30.9-20-19.3-10.3,6.3-20.7,15.3-29.8,23.7-15.4,14.3-27.3,26.3-40.1,40.9-8.7,10-16.4,20.9-21.6,33.1-7,16.7-12.8,39.1-12.6,58.4,0,16.4,8.9,31.2,26.5,30.9,16.2-.5,29.9-10.3,43.6-18.1,71.1-43.6,77.8-53.5,150-3,10.5,6.9,21.5,14.1,34,16.5,23.5,4.3,34.1-12.4,32.8-34.1-1.2-22.2-7.1-43.7-12.1-65.2-4.5-17.9-9.2-38.2.9-55.1,5.1-8.9,12.7-16.3,20.2-23.2,15.9-14.6,33-27.5,48-42.8,14.1-14.1,25.1-36.1,5.9-51.2h-.1ZM237.1,216.8c.1-.2.8-1.2.7-1-.1.2-.7,1-.7,1h0ZM294.2,447.7c0-.2-.1-.9,0-.6,0,.2.1.7,0,.7h0Z"/>
  <path class="st8" d="M191.8,155.6l-.7,1c.2-.3.4-.7.7-1Z"/>
  <rect class="st3" x="144" y="100.7" width="692" height="711"/>
  <text/>
  <text/>
  <text/>
</svg>