<?xml version="1.0" encoding="UTF-8"?>
<svg xmlns="http://www.w3.org/2000/svg" width="365" height="120" viewBox="0 0 365.00 120.00" fill="none">
  
  <g transform="translate(0 0) scale(0.11549567)">
    <path d="M 1086.00 353.00 L 1061.00 332.00 L 1029.00 319.00 L 980.00 310.00 L 823.00 297.00 L 786.00 288.00 L 754.00 272.00 L 728.00 250.00 L 698.00 209.00 L 677.00 168.00 L 639.00 77.00 L 618.00 40.00 L 592.00 13.00 L 579.00 5.00 L 560.00 0.00 L 535.00 1.00 L 525.00 5.00 L 500.00 22.00 L 488.00 36.00 L 458.00 86.00 L 398.00 219.00 L 373.00 254.00 L 347.00 276.00 L 320.00 289.00 L 271.00 300.00 L 85.00 314.00 L 52.00 323.00 L 27.00 336.00 L 9.00 354.00 L 0.00 374.00 L 1.00 405.00 L 18.00 440.00 L 61.00 485.00 L 157.00 567.00 L 188.00 588.00 L 225.00 601.00 L 256.00 597.00 L 283.00 580.00 L 299.00 563.00 L 353.00 488.00 L 405.00 432.00 L 467.00 382.00 L 528.00 347.00 L 577.00 330.00 L 600.00 327.00 L 635.00 330.00 L 656.00 339.00 L 674.00 353.00 L 686.00 370.00 L 695.00 392.00 L 699.00 416.00 L 695.00 467.00 L 683.00 509.00 L 661.00 558.00 L 636.00 602.00 L 593.00 664.00 L 551.00 714.00 L 495.00 768.00 L 457.00 797.00 L 426.00 815.00 L 404.00 820.00 L 397.00 814.00 L 397.00 804.00 L 406.00 783.00 L 465.00 695.00 L 495.00 635.00 L 503.00 610.00 L 506.00 579.00 L 500.00 561.00 L 489.00 554.00 L 476.00 554.00 L 455.00 562.00 L 405.00 598.00 L 357.00 641.00 L 302.00 696.00 L 263.00 740.00 L 239.00 773.00 L 220.00 808.00 L 195.00 884.00 L 187.00 936.00 L 187.00 974.00 L 192.00 995.00 L 201.00 1013.00 L 217.00 1029.00 L 238.00 1038.00 L 269.00 1038.00 L 286.00 1034.00 L 325.00 1017.00 L 487.00 920.00 L 531.00 903.00 L 569.00 899.00 L 608.00 907.00 L 647.00 924.00 L 690.00 949.00 L 765.00 1000.00 L 806.00 1021.00 L 833.00 1028.00 L 854.00 1029.00 L 872.00 1025.00 L 888.00 1016.00 L 902.00 999.00 L 910.00 979.00 L 913.00 937.00 L 902.00 858.00 L 872.00 733.00 L 869.00 709.00 L 872.00 665.00 L 882.00 640.00 L 902.00 611.00 L 937.00 576.00 L 1040.00 487.00 L 1079.00 444.00 L 1089.00 427.00 L 1097.00 404.00 L 1097.00 376.00 Z" fill="#FFFFFF" fill-rule="evenodd" />
  </g>

  
  <g transform="translate(150.81 41.70) scale(0.12)">
    <path d="M 1674.00 67.00 L 1648.00 48.00 L 1622.00 40.00 L 1582.00 39.00 L 1553.00 44.00 L 1536.00 52.00 L 1518.00 66.00 L 1506.00 82.00 L 1497.00 103.00 L 1494.00 119.00 L 1490.00 121.00 L 1489.00 44.00 L 1400.00 44.00 L 1400.00 299.00 L 1495.00 299.00 L 1496.00 151.00 L 1500.00 140.00 L 1507.00 132.00 L 1514.00 128.00 L 1533.00 124.00 L 1560.00 124.00 L 1580.00 128.00 L 1592.00 136.00 L 1598.00 146.00 L 1601.00 160.00 L 1601.00 299.00 L 1697.00 299.00 L 1697.00 128.00 L 1691.00 96.00 L 1683.00 79.00 Z M 1128.00 71.00 L 1107.00 94.00 L 1094.00 117.00 L 1086.00 147.00 L 1085.00 163.00 L 1086.00 199.00 L 1094.00 231.00 L 1104.00 250.00 L 1122.00 271.00 L 1140.00 284.00 L 1172.00 297.00 L 1216.00 304.00 L 1250.00 304.00 L 1276.00 301.00 L 1308.00 292.00 L 1325.00 284.00 L 1352.00 263.00 L 1368.00 237.00 L 1373.00 217.00 L 1373.00 201.00 L 1277.00 201.00 L 1275.00 216.00 L 1263.00 225.00 L 1243.00 228.00 L 1216.00 228.00 L 1200.00 226.00 L 1188.00 221.00 L 1179.00 211.00 L 1174.00 197.00 L 1175.00 189.00 L 1373.00 189.00 L 1375.00 158.00 L 1369.00 120.00 L 1355.00 91.00 L 1339.00 73.00 L 1317.00 57.00 L 1299.00 49.00 L 1263.00 40.00 L 1247.00 39.00 L 1200.00 40.00 L 1181.00 44.00 L 1147.00 58.00 Z M 1175.00 140.00 L 1179.00 129.00 L 1189.00 119.00 L 1198.00 115.00 L 1215.00 112.00 L 1242.00 112.00 L 1262.00 116.00 L 1269.00 119.00 L 1277.00 127.00 L 1282.00 140.00 Z M 1046.00 56.00 L 1028.00 44.00 L 1014.00 40.00 L 980.00 39.00 L 955.00 44.00 L 939.00 53.00 L 925.00 66.00 L 912.00 90.00 L 908.00 110.00 L 904.00 111.00 L 903.00 44.00 L 814.00 44.00 L 814.00 299.00 L 909.00 299.00 L 909.00 141.00 L 911.00 132.00 L 919.00 123.00 L 931.00 119.00 L 953.00 119.00 L 965.00 123.00 L 971.00 129.00 L 975.00 141.00 L 975.00 178.00 L 1070.00 178.00 L 1070.00 112.00 L 1068.00 97.00 L 1059.00 72.00 Z M 328.00 65.00 L 310.00 86.00 L 301.00 113.00 L 301.00 134.00 L 306.00 153.00 L 320.00 173.00 L 332.00 182.00 L 352.00 191.00 L 368.00 195.00 L 464.00 205.00 L 478.00 208.00 L 484.00 214.00 L 484.00 219.00 L 478.00 226.00 L 457.00 229.00 L 434.00 229.00 L 407.00 224.00 L 403.00 217.00 L 403.00 208.00 L 307.00 208.00 L 308.00 225.00 L 314.00 247.00 L 323.00 262.00 L 337.00 276.00 L 365.00 292.00 L 398.00 301.00 L 426.00 304.00 L 464.00 304.00 L 491.00 301.00 L 521.00 293.00 L 546.00 280.00 L 565.00 262.00 L 576.00 241.00 L 578.00 228.00 L 575.00 198.00 L 567.00 181.00 L 553.00 167.00 L 537.00 158.00 L 511.00 150.00 L 407.00 137.00 L 400.00 134.00 L 395.00 128.00 L 397.00 121.00 L 404.00 115.00 L 448.00 114.00 L 468.00 119.00 L 473.00 129.00 L 473.00 136.00 L 569.00 136.00 L 567.00 110.00 L 563.00 97.00 L 555.00 82.00 L 540.00 66.00 L 527.00 57.00 L 506.00 48.00 L 476.00 41.00 L 453.00 39.00 L 395.00 40.00 L 374.00 44.00 L 350.00 52.00 Z M 27.00 84.00 L 14.00 104.00 L 9.00 117.00 L 5.00 135.00 L 5.00 151.00 L 101.00 151.00 L 101.00 139.00 L 110.00 127.00 L 120.00 123.00 L 150.00 122.00 L 165.00 123.00 L 177.00 128.00 L 183.00 134.00 L 186.00 155.00 L 176.00 158.00 L 73.00 167.00 L 41.00 175.00 L 19.00 188.00 L 5.00 206.00 L 1.00 218.00 L 0.00 247.00 L 9.00 271.00 L 21.00 284.00 L 40.00 296.00 L 68.00 303.00 L 105.00 304.00 L 126.00 301.00 L 152.00 291.00 L 167.00 280.00 L 180.00 263.00 L 186.00 247.00 L 190.00 246.00 L 191.00 299.00 L 280.00 299.00 L 279.00 127.00 L 274.00 108.00 L 265.00 89.00 L 244.00 65.00 L 214.00 48.00 L 181.00 40.00 L 116.00 40.00 L 95.00 44.00 L 69.00 53.00 L 48.00 65.00 Z M 185.00 211.00 L 182.00 221.00 L 176.00 227.00 L 159.00 235.00 L 108.00 237.00 L 100.00 235.00 L 96.00 229.00 L 98.00 222.00 L 104.00 219.00 L 159.00 212.00 Z M 622.00 0.00 L 622.00 43.00 L 585.00 44.00 L 585.00 122.00 L 622.00 123.00 L 622.00 206.00 L 624.00 229.00 L 632.00 254.00 L 649.00 276.00 L 667.00 288.00 L 679.00 293.00 L 713.00 299.00 L 791.00 299.00 L 792.00 214.00 L 736.00 213.00 L 722.00 206.00 L 718.00 195.00 L 718.00 123.00 L 791.00 122.00 L 792.00 45.00 L 719.00 44.00 L 718.00 0.00 Z" fill="#FFFFFF" fill-rule="evenodd" />
  </g>
</svg>